<?xml version="1.0" standalone="no"?>
<!DOCTYPE svg PUBLIC "-//W3C//DTD SVG 20010904//EN"
 "http://www.w3.org/TR/2001/REC-SVG-20010904/DTD/svg10.dtd">
<svg version="1.0" xmlns="http://www.w3.org/2000/svg"
 width="140.000000pt" height="140.000000pt" viewBox="0 0 140.000000 140.000000"
 preserveAspectRatio="xMidYMid meet">
<metadata>
Created by potrace 1.14, written by Peter Selinger 2001-2017
</metadata>
<g transform="translate(0.000000,140.000000) scale(0.100000,-0.100000)"
fill="#000000" stroke="none">
<path d="M242 1388 c-53 -9 -130 -49 -164 -85 -14 -15 -37 -48 -50 -73 l-23
-45 0 -485 0 -485 23 -45 c34 -65 76 -105 145 -136 l61 -27 462 0 c343 1 472
4 500 13 89 29 168 109 194 195 8 29 10 173 8 510 l-3 470 -31 50 c-36 60
-111 119 -170 135 -48 14 -880 21 -952 8z m533 -119 c28 -1 66 -6 85 -11 56
-15 140 -51 140 -61 0 -5 7 -6 16 -3 8 3 12 2 9 -4 -3 -6 -1 -10 5 -10 13 0
89 -75 117 -115 53 -77 88 -162 101 -250 11 -73 4 -266 -10 -291 -6 -9 -32
-85 -33 -94 -3 -37 -169 -226 -202 -231 -5 -1 -26 -10 -48 -22 -22 -11 -47
-21 -55 -23 -8 -1 -37 -7 -65 -13 -50 -12 -226 -18 -242 -8 -4 3 -26 8 -47 11
-45 7 -115 37 -155 65 -16 11 -31 18 -35 14 -3 -3 -6 -1 -6 5 0 6 -18 28 -40
49 -51 49 -105 140 -132 223 -32 99 -33 287 -3 385 12 40 32 89 44 109 13 20
20 36 17 36 -5 0 15 23 92 102 69 72 175 121 292 134 25 3 46 7 48 9 1 1 15 1
30 -1 15 -2 50 -4 77 -5z"/>
<path d="M650 1102 c-14 -1 -32 -6 -40 -9 -8 -3 -20 -7 -27 -9 -20 -4 -82 -55
-102 -83 -10 -14 -29 -55 -42 -91 -19 -55 -23 -85 -23 -195 -1 -175 12 -232
72 -319 28 -41 97 -91 112 -81 4 3 10 0 12 -6 3 -8 31 -12 78 -12 165 0 267
90 298 263 9 52 8 262 -2 285 -5 11 -10 29 -11 41 -6 40 -48 116 -86 153 -53
52 -144 76 -239 63z"/>
</g>
</svg>
